<?xml version="1.0" encoding="utf-8"?>
<!-- Generator: Adobe Illustrator 17.0.0, SVG Export Plug-In . SVG Version: 6.00 Build 0)  -->
<!DOCTYPE svg PUBLIC "-//W3C//DTD SVG 1.1//EN" "http://www.w3.org/Graphics/SVG/1.1/DTD/svg11.dtd">
<svg version="1.1" id="Layer_1" xmlns="http://www.w3.org/2000/svg" xmlns:xlink="http://www.w3.org/1999/xlink" x="0px" y="0px"
	 width="19.614px" height="19.614px" viewBox="0 0 19.614 19.614" enable-background="new 0 0 19.614 19.614"
	 xml:space="preserve">
<path fill="#FFF" d="M16.637,7.356l1.984-1.984c0.617-0.617,0.617-1.619,0-2.236s-1.619-0.617-2.236,0L14.401,5.12l-3.354-3.354
	c-0.617-0.617-1.619-0.617-2.236,0L4.337,6.238c-0.617,0.617-0.617,1.619,0,2.236l5.591,5.591l4.473-4.472l0.866,0.866l-5.339,5.339
	L3.471,9.34c-0.617-0.617-1.619-0.617-2.236,0c-0.617,0.617-0.617,1.619,0,2.236l7.575,7.575c0.617,0.617,1.619,0.617,2.236,0
	l7.575-7.575c0.617-0.617,0.617-1.619,0-2.236L16.637,7.356L16.637,7.356z M9.928,9.593L7.691,7.356L9.928,5.12l2.236,2.236
	L9.928,9.593L9.928,9.593z"/>
</svg>
